HIERARCHY
ROOT Hips
{
	OFFSET 0.000000 0.000000 0.000000
	CHANNELS 6 Xposition Yposition Zposition Zrotation Yrotation Xrotation
	JOINT LHipJoint
	{
		OFFSET 0.000000 0.000000 0.000000
		CHANNELS 3 Zrotation Yrotation Xrotation
		JOINT LeftUpLeg
		{
			OFFSET 0.076937 -0.101296 0.047373
			CHANNELS 3 Zrotation Yrotation Xrotation
			JOINT LeftLeg
			{
				OFFSET 0.138181 -0.379650 0.000000
				CHANNELS 3 Zrotation Yrotation Xrotation
				JOINT LeftFoot
				{
					OFFSET 0.144621 -0.397343 0.000000
					CHANNELS 3 Zrotation Yrotation Xrotation
					JOINT LeftToeBase
					{
						OFFSET 0.008898 -0.024446 0.131094
						CHANNELS 3 Zrotation Yrotation Xrotation
						End Site
						{
							OFFSET 0.000000 0.000000 0.000000
						}
					}
				}
			}
		}
	}
	JOINT RHipJoint
	{
		OFFSET 0.000000 0.000000 0.000000
		CHANNELS 3 Zrotation Yrotation Xrotation
		JOINT RightUpLeg
		{
			OFFSET -0.073689 -0.101296 0.047373
			CHANNELS 3 Zrotation Yrotation Xrotation
			JOINT RightLeg
			{
				OFFSET -0.143511 -0.394292 0.000000
				CHANNELS 3 Zrotation Yrotation Xrotation
				JOINT RightFoot
				{
					OFFSET -0.144963 -0.398282 0.000000
					CHANNELS 3 Zrotation Yrotation Xrotation
					JOINT RightToeBase
					{
						OFFSET -0.009298 -0.025546 0.133386
						CHANNELS 3 Zrotation Yrotation Xrotation
						End Site
						{
							OFFSET 0.000000 0.000000 0.000000
						}
					}
				}
			}
		}
	}
	JOINT LowerBack
	{
		OFFSET 0.000000 0.000000 0.000000
		CHANNELS 3 Zrotation Yrotation Xrotation
		JOINT Spine
		{
			OFFSET 0.001596 0.114897 -0.010915
			CHANNELS 3 Zrotation Yrotation Xrotation
			JOINT Spine1
			{
				OFFSET 0.003201 0.115645 -0.002413
				CHANNELS 3 Zrotation Yrotation Xrotation
				JOINT Neck
				{
					OFFSET 0.000000 0.000000 0.000000
					CHANNELS 3 Zrotation Yrotation Xrotation
					JOINT Neck1
					{
						OFFSET -0.003058 0.098565 0.009709
						CHANNELS 3 Zrotation Yrotation Xrotation
						JOINT Head
						{
							OFFSET 0.005874 0.099418 -0.006997
							CHANNELS 3 Zrotation Yrotation Xrotation
							End Site
							{
								OFFSET 0.000000 0.000000 0.000000
							}
						}
					}
				}
				JOINT LeftShoulder
				{
					OFFSET 0.000000 0.000000 0.000000
					CHANNELS 3 Zrotation Yrotation Xrotation
					JOINT LeftArm
					{
						OFFSET 0.189788 0.067783 -0.017566
						CHANNELS 3 Zrotation Yrotation Xrotation
						JOINT LeftForeArm
						{
							OFFSET 0.281260 -0.000000 -0.000000
							CHANNELS 3 Zrotation Yrotation Xrotation
							JOINT LeftHand
							{
								OFFSET 0.196626 -0.000000 -0.000000
								CHANNELS 3 Zrotation Yrotation Xrotation
								JOINT LeftFingerBase
								{
									OFFSET 0.000000 0.000000 0.000000
									CHANNELS 3 Zrotation Yrotation Xrotation
									JOINT LeftHandIndex1
									{
										OFFSET 0.040372 -0.000000 -0.000000
										CHANNELS 3 Zrotation Yrotation Xrotation
										End Site
										{
											OFFSET 0.000000 0.000000 0.000000
										}
									}
								}
								JOINT LThumb
								{
									OFFSET 0.000000 0.000000 0.000000
									CHANNELS 3 Zrotation Yrotation Xrotation
									End Site
									{
										OFFSET 0.000000 0.000000 0.000000
									}
								}
							}
						}
					}
				}
				JOINT RightShoulder
				{
					OFFSET 0.000000 0.000000 0.000000
					CHANNELS 3 Zrotation Yrotation Xrotation
					JOINT RightArm
					{
						OFFSET -0.177042 0.077557 -0.022840
						CHANNELS 3 Zrotation Yrotation Xrotation
						JOINT RightForeArm
						{
							OFFSET -0.295874 -0.000000 -0.000000
							CHANNELS 3 Zrotation Yrotation Xrotation
							JOINT RightHand
							{
								OFFSET -0.194403 -0.000000 -0.000000
								CHANNELS 3 Zrotation Yrotation Xrotation
								JOINT RightFingerBase
								{
									OFFSET 0.000000 0.000000 0.000000
									CHANNELS 3 Zrotation Yrotation Xrotation
									JOINT RightHandIndex1
									{
										OFFSET -0.035138 -0.000000 -0.000000
										CHANNELS 3 Zrotation Yrotation Xrotation
										End Site
										{
											OFFSET 0.000000 0.000000 0.000000
										}
									}
								}
								JOINT RThumb
								{
									OFFSET 0.000000 0.000000 0.000000
									CHANNELS 3 Zrotation Yrotation Xrotation
									End Site
									{
										OFFSET 0.000000 0.000000 0.000000
									}
								}
							}
						}
					}
				}
			}
		}
	}
}
MOTION
Frames: 11
Frame Time: 0.033333
4.737203 0.939632 -19.247903 -179.734087 47.775093 -176.604720 -7.306442 23.224375 -6.054285 -14.792648 -11.063937 -24.379839 27.704098 5.123376 79.951432 41.032407 -10.388050 6.954253 -9.353592 15.941566 -7.926859 1.582547 -30.074330 -3.928650 30.075703 5.911239 -12.395961 -16.346508 -6.401044 53.015769 -34.460413 9.092601 -20.595789 4.866619 -5.971968 -12.647808 4.039175 3.839113 30.575378 3.217088 4.537656 9.579220 -2.241488 -0.978600 -27.071670 -5.433919 6.586637 -13.164214 4.909694 6.408415 1.678703 -1.064894 2.669545 -14.006973 9.467363 23.452627 3.700025 -77.176763 -9.502915 49.382421 -12.394046 -80.388326 20.552896 10.201751 -26.887037 11.201365 -3.547110 11.515604 0.135302 -0.003725 -0.019761 0.016558 -0.002466 0.004829 -0.004231 -7.311894 -33.379552 0.665361 76.810126 5.180423 38.309240 128.349412 88.886883 133.472152 -9.090026 20.025506 6.896881 -0.955473 -10.818774 -0.216003 -0.025058 -0.062881 0.037901 0.008321 0.003642 0.002652 
4.785190 0.945874 -19.288258 -179.469493 46.731608 -176.314266 -6.886385 23.877562 -7.835744 -17.772789 -12.566027 -25.963028 24.009602 4.288585 76.760447 33.432167 -2.246646 5.098982 -8.574266 11.326896 -8.452057 1.125107 -28.996601 -2.241844 28.690676 4.674176 -9.559594 -15.021262 -7.246042 49.786758 -35.434435 10.087543 -19.828788 5.128575 -6.090945 -13.728347 4.600977 2.233827 31.277415 0.816128 2.721724 7.781661 -1.649833 1.490053 -25.453262 -4.850256 4.747032 -13.365579 5.585050 4.991524 1.634488 -1.206547 1.491450 -14.249045 9.456612 24.792822 4.326342 -74.907537 -7.905994 48.179717 -13.805998 -79.977060 19.695620 9.445830 -26.628770 10.527787 -3.348536 11.478652 0.196322 -0.003318 -0.020949 0.016459 0.001422 0.003008 -0.003703 -6.853076 -29.979278 0.305906 79.634837 8.313387 38.319381 153.871015 86.735867 160.801517 -9.700875 19.712026 6.953647 -2.174218 -10.447250 -0.169624 -0.023742 -0.058863 0.039079 0.006239 -0.000154 0.005362 
4.834349 0.961280 -19.330438 -179.137720 45.827261 -176.080857 -6.175679 24.869165 -9.128499 -21.344469 -13.574981 -25.983124 19.555594 4.337215 69.036033 29.749812 -0.287408 3.206885 -7.830062 8.569174 -9.771247 0.507298 -28.183956 -0.267390 27.290660 3.208993 -6.642940 -13.510944 -7.762671 45.322839 -36.671294 11.963360 -16.216460 5.519432 -7.330258 -15.196533 5.248941 0.329004 30.963068 -1.902270 0.530733 6.798281 -1.022914 4.298473 -24.815993 -4.003086 2.204623 -13.346845 5.949583 2.697618 2.286124 -1.419309 0.279589 -14.161058 9.955780 27.269621 5.333494 -72.787729 -5.927314 49.026070 -15.495687 -82.018832 19.498216 8.954775 -26.201182 10.335338 -3.679416 11.373278 0.223591 -0.005220 -0.019661 0.017051 0.003186 0.003617 -0.004518 -6.539377 -27.229506 0.122317 81.524610 10.405674 39.687575 155.799447 84.067137 164.380340 -10.965773 20.163238 7.591481 -3.186907 -10.045652 -0.036026 -0.022074 -0.057916 0.039662 0.006429 -0.000720 0.008799 
4.885951 0.980331 -19.374817 -178.956955 44.836078 -175.966637 -5.388667 25.860412 -9.853691 -25.243002 -13.846411 -24.850990 14.692636 4.172751 57.855253 27.393833 -1.667101 0.495698 -7.025142 6.028479 -10.604572 -0.322593 -27.344107 1.886178 25.746453 2.562767 -4.374038 -11.811215 -8.130717 42.101830 -38.007179 14.705695 -9.410034 6.258281 -9.457114 -16.789848 5.277347 -1.119754 29.335418 -4.452054 -1.035774 6.500217 -0.240924 6.667121 -24.650556 -2.962174 -0.828035 -13.222798 6.323270 -0.198957 3.120976 -1.681808 -1.263833 -13.898090 10.675717 30.387025 6.468655 -70.823362 -3.989303 51.072115 -15.795160 -85.408823 18.660929 8.659022 -26.094346 10.504743 -4.575943 11.322347 0.201515 -0.006027 -0.016915 0.017173 0.004144 0.003296 -0.005772 -6.784573 -25.110823 0.555156 83.440916 11.323808 41.924771 161.027969 79.222034 170.511225 -11.637736 21.088044 7.568845 -4.331525 -9.550084 0.055090 -0.021280 -0.054933 0.041292 0.007639 -0.000709 0.012803 
4.940419 0.995980 -19.421507 -178.830767 44.008622 -175.688338 -4.690221 26.042637 -9.836903 -27.859606 -12.925034 -23.055511 9.051470 3.130850 45.820439 26.603012 -6.445633 -0.450975 -7.221968 4.651405 -10.256665 -0.496144 -26.640736 3.425922 23.588039 1.968631 -3.734865 -10.264626 -8.462914 41.421912 -37.595977 18.388886 -0.903434 8.163055 -11.425574 -18.408448 4.465895 -1.611022 27.084015 -6.189458 -1.673891 6.886958 1.035076 8.197918 -24.882263 -1.900083 -3.837174 -13.368211 6.294459 -3.178408 3.760268 -2.058313 -2.700910 -13.555113 11.881888 32.986679 7.650347 -69.444791 -2.151179 52.669426 -14.494485 -87.860727 16.813797 8.166926 -26.698929 10.345550 -5.291124 11.122214 0.222429 -0.006598 -0.014474 0.017302 0.003496 0.002499 -0.004322 -7.345663 -23.902200 0.970222 84.354802 11.024628 45.180146 165.048764 74.547170 174.173945 -11.754563 21.469890 7.403560 -4.696040 -8.999807 0.059703 -0.022044 -0.053889 0.041305 0.007717 -0.001271 0.016271 
4.996764 1.004056 -19.469843 -178.760007 43.335902 -175.528456 -4.327991 25.942974 -9.065646 -29.013581 -11.969472 -21.733802 4.373857 0.756523 36.500119 25.836968 -10.918151 0.001519 -7.916595 3.935601 -10.069012 0.423407 -26.735037 3.999170 21.066136 1.395983 -4.351161 -12.655511 -10.154497 43.907975 -43.006330 27.591533 5.256411 10.291637 -16.701054 -16.167590 3.348492 -1.406218 24.905977 -6.942112 -1.796158 8.064188 2.011493 8.807109 -25.376529 -1.177006 -5.565602 -13.880554 6.496543 -4.943807 4.257103 -2.238157 -3.945027 -12.804464 13.315432 34.463345 8.528555 -68.805533 -1.306616 53.440542 -12.980220 -89.790227 15.027344 7.495015 -27.294325 10.231221 -5.621638 10.746886 0.238016 -0.008164 -0.008566 0.017906 0.003527 0.001191 -0.000748 -8.274082 -24.057831 1.002962 83.541380 9.979476 48.781460 168.591248 71.356565 176.220781 -11.438082 21.825341 7.115256 -4.124226 -8.635256 -0.004906 -0.023866 -0.053435 0.041513 0.005135 -0.002004 0.017192 
5.052990 1.001480 -19.518408 -178.833204 42.917903 -175.591334 -4.399926 25.914174 -8.331280 -29.644837 -10.739663 -20.637719 2.507201 -1.414655 31.493898 25.457651 -13.853778 -0.282467 -8.207618 3.704541 -9.666405 1.301653 -26.960059 4.258422 18.755352 1.844943 -5.684375 -15.083210 -11.215650 49.112868 -46.914697 37.744293 7.993812 12.377094 -21.789076 -12.668269 2.166306 -0.957182 22.866209 -6.598213 -1.443980 9.070213 2.561717 8.592245 -25.629752 -0.742082 -6.893001 -14.288389 6.489204 -6.441577 4.156370 -2.354525 -4.722438 -12.329365 14.098983 35.003228 9.244442 -68.984503 -1.360342 52.670526 162.141727 -88.675843 -159.911278 6.745822 -26.961508 9.701084 -5.521375 10.301019 0.240776 -0.010206 -0.005884 0.019086 0.003409 0.000643 0.001637 -9.289461 -24.206585 0.918849 81.623428 9.301663 51.715239 171.505702 70.043815 178.070361 -11.294152 22.427246 7.056845 -3.148767 -8.601768 -0.071098 -0.027464 -0.052301 0.046278 0.005705 -0.001080 0.015240 
5.107109 0.987124 -19.565970 -179.147797 42.693915 -176.138116 -4.525660 25.438859 -7.400361 -30.067940 -10.406480 -19.029748 2.571797 -1.591841 30.295055 27.059323 -14.352711 -1.057096 -7.595587 3.231332 -9.431389 1.605695 -27.120329 4.368678 16.913651 3.429648 -7.449629 -18.474300 -12.376312 56.183295 -52.045691 43.462797 5.746248 13.068249 -25.278121 -10.264914 1.288437 -0.178567 20.936731 -5.573227 -0.835162 9.548321 2.329011 7.952364 -25.575905 -0.734649 -6.911878 -14.172372 6.507954 -6.677517 4.047616 -2.376228 -4.910930 -12.202612 13.932862 34.224810 9.931023 -69.722359 -1.982072 51.065383 160.632264 -87.642510 -157.458512 6.178664 -26.299611 8.957014 -5.085455 9.973361 0.235364 -0.010641 -0.002300 0.019539 0.003417 -0.000207 0.002364 -9.911527 -24.753236 0.852135 79.595996 8.754249 53.081808 173.206896 69.652819 179.348455 -10.965725 22.801824 6.975194 -2.320252 -8.733354 -0.113480 -0.029280 -0.049745 0.049915 0.004884 -0.000203 0.014652 
5.157913 0.966889 -19.611442 -179.613102 42.510087 -176.979149 -4.712734 24.939344 -6.588874 -30.358425 -11.225864 -17.354984 5.141644 0.098433 33.920051 30.929781 -13.076048 -3.527159 -6.333752 2.481425 -9.730423 2.072646 -27.180763 3.995734 15.052121 5.093342 -10.604010 -22.878821 -12.706718 64.178710 -54.871636 43.386097 1.510438 12.556917 -26.866412 -8.941753 1.516262 0.543376 19.448765 -5.311584 -0.461625 10.358993 1.501839 7.286327 -26.145938 -1.140012 -5.185570 -13.923526 6.763579 -5.346398 4.384302 -2.222268 -4.618957 -12.014186 13.134838 33.022200 10.162802 -70.718890 -2.967808 50.489221 161.267804 -87.083509 -157.268939 6.027517 -25.794117 8.353040 -4.392608 9.926883 0.226550 -0.008599 0.000658 0.019365 0.003767 -0.002475 0.001314 -9.910777 -26.388875 0.986448 78.123592 7.418332 53.875273 173.814827 71.232564 179.895483 -10.771753 23.337344 7.482634 -1.777613 -8.858660 -0.120977 -0.029758 -0.046643 0.050636 0.001806 0.000599 0.015222 
5.205675 0.950323 -19.653754 -179.936341 42.446271 -177.583294 -5.032488 24.772832 -6.352723 -30.262088 -11.423068 -16.255776 8.733640 1.505556 40.089224 31.940039 -11.425869 -6.457015 -5.811028 2.264752 -10.005155 3.034588 -27.154482 3.218010 13.557209 6.506770 -14.683371 -27.102967 -11.658836 71.320855 -54.911440 40.218161 -1.165043 11.661898 -27.015214 -8.409854 2.480599 0.914315 19.201926 -5.287992 -0.476779 11.440096 0.415793 6.402443 -27.516240 -1.558317 -4.352987 -13.846381 6.389112 -4.892304 5.048132 -2.236528 -4.209218 -11.535199 12.083212 32.725352 9.690844 -71.862826 -3.811088 50.508851 163.745512 -87.006944 -159.609041 6.317478 -25.067841 7.920367 -3.465911 10.034901 0.245219 -0.007327 0.001689 0.018510 0.003898 -0.004350 -0.000451 -9.478903 -28.091257 0.996799 77.260508 5.672301 54.764135 174.460152 74.774375 -179.343161 -10.836781 23.986181 8.494899 -0.954637 -9.055548 -0.107516 -0.028113 -0.043821 0.049617 -0.000019 -0.000111 0.015401 
5.251754 0.941732 -19.692794 179.849374 42.667612 -177.962905 -5.014058 24.552405 -6.088846 -29.810300 -11.243545 -15.335215 11.727843 2.209458 45.461124 32.965348 -10.420180 -9.420874 -5.518422 2.168270 -10.418095 4.097728 -27.298977 2.056816 12.943272 7.907162 -19.034063 -29.760563 -9.990382 76.745403 -52.973597 35.380486 -1.530376 10.665608 -25.904279 -8.086435 3.743743 1.267233 19.809619 -4.795527 -0.364201 12.701379 -1.152824 5.129802 -29.330804 -1.981756 -3.686286 -13.679610 5.967027 -4.542639 5.716305 -2.242503 -3.800999 -11.038650 10.683318 32.584340 8.925050 -72.888539 -4.814502 50.581268 166.035960 -87.022721 -161.697222 6.808967 -23.693696 7.630138 -2.420631 10.117940 0.276878 -0.006554 0.001506 0.017643 0.003433 -0.005716 -0.002307 -9.410370 -29.931881 0.668793 77.149633 3.701465 54.809519 175.564718 79.240317 -178.522709 -10.855591 24.521577 9.330841 0.002037 -9.449234 -0.088664 -0.027309 -0.041780 0.048878 -0.000478 -0.001126 0.014831 
